<svg xmlns="http://www.w3.org/2000/svg" xmlns:xlink="http://www.w3.org/1999/xlink" width="1600" zoomAndPan="magnify" viewBox="0 0 1200 671.999997" height="896" preserveAspectRatio="xMidYMid meet" version="1.0"><defs><g/><linearGradient x1="0" gradientTransform="matrix(0.75, 0, 0, 0.75, 0.00000267857, 0.00002)" y1="448" x2="1599.999933" gradientUnits="userSpaceOnUse" y2="448" id="3b1d51379d"><stop stop-opacity="1" stop-color="rgb(92.158508%, 29.40979%, 24.708557%)" offset="0"/><stop stop-opacity="1" stop-color="rgb(92.166138%, 29.521179%, 24.751282%)" offset="0.0078125"/><stop stop-opacity="1" stop-color="rgb(92.182922%, 29.743958%, 24.838257%)" offset="0.015625"/><stop stop-opacity="1" stop-color="rgb(92.198181%, 29.968262%, 24.923706%)" offset="0.0234375"/><stop stop-opacity="1" stop-color="rgb(92.21344%, 30.19104%, 25.009155%)" offset="0.03125"/><stop stop-opacity="1" stop-color="rgb(92.228699%, 30.415344%, 25.094604%)" offset="0.0390625"/><stop stop-opacity="1" stop-color="rgb(92.243958%, 30.639648%, 25.18158%)" offset="0.046875"/><stop stop-opacity="1" stop-color="rgb(92.259216%, 30.862427%, 25.267029%)" offset="0.0546875"/><stop stop-opacity="1" stop-color="rgb(92.274475%, 31.086731%, 25.352478%)" offset="0.0625"/><stop stop-opacity="1" stop-color="rgb(92.289734%, 31.309509%, 25.437927%)" offset="0.0703125"/><stop stop-opacity="1" stop-color="rgb(92.304993%, 31.533813%, 25.523376%)" offset="0.078125"/><stop stop-opacity="1" stop-color="rgb(92.320251%, 31.756592%, 25.610352%)" offset="0.0859375"/><stop stop-opacity="1" stop-color="rgb(92.33551%, 31.980896%, 25.695801%)" offset="0.09375"/><stop stop-opacity="1" stop-color="rgb(92.350769%, 32.2052%, 25.78125%)" offset="0.101562"/><stop stop-opacity="1" stop-color="rgb(92.366028%, 32.427979%, 25.866699%)" offset="0.109375"/><stop stop-opacity="1" stop-color="rgb(92.381287%, 32.652283%, 25.952148%)" offset="0.117188"/><stop stop-opacity="1" stop-color="rgb(92.396545%, 32.875061%, 26.039124%)" offset="0.125"/><stop stop-opacity="1" stop-color="rgb(92.411804%, 33.099365%, 26.124573%)" offset="0.132812"/><stop stop-opacity="1" stop-color="rgb(92.427063%, 33.323669%, 26.210022%)" offset="0.140625"/><stop stop-opacity="1" stop-color="rgb(92.442322%, 33.546448%, 26.295471%)" offset="0.148438"/><stop stop-opacity="1" stop-color="rgb(92.457581%, 33.770752%, 26.382446%)" offset="0.15625"/><stop stop-opacity="1" stop-color="rgb(92.472839%, 33.99353%, 26.467896%)" offset="0.164062"/><stop stop-opacity="1" stop-color="rgb(92.488098%, 34.217834%, 26.553345%)" offset="0.171875"/><stop stop-opacity="1" stop-color="rgb(92.503357%, 34.442139%, 26.638794%)" offset="0.179688"/><stop stop-opacity="1" stop-color="rgb(92.518616%, 34.664917%, 26.724243%)" offset="0.1875"/><stop stop-opacity="1" stop-color="rgb(92.533875%, 34.889221%, 26.811218%)" offset="0.195312"/><stop stop-opacity="1" stop-color="rgb(92.549133%, 35.112%, 26.896667%)" offset="0.203125"/><stop stop-opacity="1" stop-color="rgb(92.564392%, 35.336304%, 26.982117%)" offset="0.210938"/><stop stop-opacity="1" stop-color="rgb(92.579651%, 35.559082%, 27.067566%)" offset="0.21875"/><stop stop-opacity="1" stop-color="rgb(92.59491%, 35.783386%, 27.154541%)" offset="0.226562"/><stop stop-opacity="1" stop-color="rgb(92.610168%, 36.00769%, 27.23999%)" offset="0.234375"/><stop stop-opacity="1" stop-color="rgb(92.626953%, 36.230469%, 27.325439%)" offset="0.242188"/><stop stop-opacity="1" stop-color="rgb(92.642212%, 36.454773%, 27.410889%)" offset="0.25"/><stop stop-opacity="1" stop-color="rgb(92.657471%, 36.677551%, 27.496338%)" offset="0.257812"/><stop stop-opacity="1" stop-color="rgb(92.672729%, 36.901855%, 27.583313%)" offset="0.265625"/><stop stop-opacity="1" stop-color="rgb(92.687988%, 37.12616%, 27.668762%)" offset="0.273438"/><stop stop-opacity="1" stop-color="rgb(92.703247%, 37.348938%, 27.754211%)" offset="0.28125"/><stop stop-opacity="1" stop-color="rgb(92.718506%, 37.573242%, 27.839661%)" offset="0.289062"/><stop stop-opacity="1" stop-color="rgb(92.733765%, 37.796021%, 27.92511%)" offset="0.296875"/><stop stop-opacity="1" stop-color="rgb(92.749023%, 38.020325%, 28.012085%)" offset="0.304688"/><stop stop-opacity="1" stop-color="rgb(92.764282%, 38.243103%, 28.097534%)" offset="0.3125"/><stop stop-opacity="1" stop-color="rgb(92.779541%, 38.467407%, 28.182983%)" offset="0.320312"/><stop stop-opacity="1" stop-color="rgb(92.7948%, 38.691711%, 28.268433%)" offset="0.328125"/><stop stop-opacity="1" stop-color="rgb(92.810059%, 38.91449%, 28.355408%)" offset="0.335938"/><stop stop-opacity="1" stop-color="rgb(92.825317%, 39.138794%, 28.440857%)" offset="0.34375"/><stop stop-opacity="1" stop-color="rgb(92.840576%, 39.361572%, 28.526306%)" offset="0.351562"/><stop stop-opacity="1" stop-color="rgb(92.855835%, 39.585876%, 28.611755%)" offset="0.359375"/><stop stop-opacity="1" stop-color="rgb(92.871094%, 39.810181%, 28.697205%)" offset="0.367188"/><stop stop-opacity="1" stop-color="rgb(92.886353%, 40.032959%, 28.78418%)" offset="0.375"/><stop stop-opacity="1" stop-color="rgb(92.901611%, 40.257263%, 28.869629%)" offset="0.382812"/><stop stop-opacity="1" stop-color="rgb(92.91687%, 40.480042%, 28.955078%)" offset="0.390625"/><stop stop-opacity="1" stop-color="rgb(92.932129%, 40.704346%, 29.040527%)" offset="0.398438"/><stop stop-opacity="1" stop-color="rgb(92.947388%, 40.92865%, 29.127502%)" offset="0.40625"/><stop stop-opacity="1" stop-color="rgb(92.962646%, 41.151428%, 29.212952%)" offset="0.414062"/><stop stop-opacity="1" stop-color="rgb(92.977905%, 41.375732%, 29.298401%)" offset="0.421875"/><stop stop-opacity="1" stop-color="rgb(92.993164%, 41.598511%, 29.38385%)" offset="0.429688"/><stop stop-opacity="1" stop-color="rgb(93.008423%, 41.822815%, 29.469299%)" offset="0.4375"/><stop stop-opacity="1" stop-color="rgb(93.023682%, 42.045593%, 29.556274%)" offset="0.445312"/><stop stop-opacity="1" stop-color="rgb(93.03894%, 42.269897%, 29.641724%)" offset="0.453125"/><stop stop-opacity="1" stop-color="rgb(93.055725%, 42.494202%, 29.727173%)" offset="0.460938"/><stop stop-opacity="1" stop-color="rgb(93.070984%, 42.71698%, 29.812622%)" offset="0.46875"/><stop stop-opacity="1" stop-color="rgb(93.086243%, 42.941284%, 29.899597%)" offset="0.476562"/><stop stop-opacity="1" stop-color="rgb(93.101501%, 43.164062%, 29.985046%)" offset="0.484375"/><stop stop-opacity="1" stop-color="rgb(93.11676%, 43.388367%, 30.070496%)" offset="0.492188"/><stop stop-opacity="1" stop-color="rgb(93.132019%, 43.612671%, 30.155945%)" offset="0.5"/><stop stop-opacity="1" stop-color="rgb(93.147278%, 43.835449%, 30.241394%)" offset="0.507812"/><stop stop-opacity="1" stop-color="rgb(93.162537%, 44.059753%, 30.328369%)" offset="0.515625"/><stop stop-opacity="1" stop-color="rgb(93.177795%, 44.282532%, 30.413818%)" offset="0.523438"/><stop stop-opacity="1" stop-color="rgb(93.193054%, 44.506836%, 30.499268%)" offset="0.53125"/><stop stop-opacity="1" stop-color="rgb(93.208313%, 44.729614%, 30.584717%)" offset="0.539062"/><stop stop-opacity="1" stop-color="rgb(93.223572%, 44.953918%, 30.670166%)" offset="0.546875"/><stop stop-opacity="1" stop-color="rgb(93.238831%, 45.178223%, 30.757141%)" offset="0.554688"/><stop stop-opacity="1" stop-color="rgb(93.254089%, 45.401001%, 30.84259%)" offset="0.5625"/><stop stop-opacity="1" stop-color="rgb(93.269348%, 45.625305%, 30.92804%)" offset="0.570312"/><stop stop-opacity="1" stop-color="rgb(93.284607%, 45.848083%, 31.013489%)" offset="0.578125"/><stop stop-opacity="1" stop-color="rgb(93.299866%, 46.072388%, 31.100464%)" offset="0.585938"/><stop stop-opacity="1" stop-color="rgb(93.315125%, 46.296692%, 31.185913%)" offset="0.59375"/><stop stop-opacity="1" stop-color="rgb(93.330383%, 46.51947%, 31.271362%)" offset="0.601562"/><stop stop-opacity="1" stop-color="rgb(93.345642%, 46.743774%, 31.356812%)" offset="0.609375"/><stop stop-opacity="1" stop-color="rgb(93.360901%, 46.966553%, 31.442261%)" offset="0.617188"/><stop stop-opacity="1" stop-color="rgb(93.37616%, 47.190857%, 31.529236%)" offset="0.625"/><stop stop-opacity="1" stop-color="rgb(93.391418%, 47.413635%, 31.614685%)" offset="0.632812"/><stop stop-opacity="1" stop-color="rgb(93.406677%, 47.637939%, 31.700134%)" offset="0.640625"/><stop stop-opacity="1" stop-color="rgb(93.421936%, 47.862244%, 31.785583%)" offset="0.648438"/><stop stop-opacity="1" stop-color="rgb(93.437195%, 48.085022%, 31.872559%)" offset="0.65625"/><stop stop-opacity="1" stop-color="rgb(93.452454%, 48.309326%, 31.958008%)" offset="0.664062"/><stop stop-opacity="1" stop-color="rgb(93.467712%, 48.532104%, 32.043457%)" offset="0.671875"/><stop stop-opacity="1" stop-color="rgb(93.484497%, 48.756409%, 32.128906%)" offset="0.679688"/><stop stop-opacity="1" stop-color="rgb(93.499756%, 48.980713%, 32.214355%)" offset="0.6875"/><stop stop-opacity="1" stop-color="rgb(93.515015%, 49.203491%, 32.301331%)" offset="0.695312"/><stop stop-opacity="1" stop-color="rgb(93.530273%, 49.427795%, 32.38678%)" offset="0.703125"/><stop stop-opacity="1" stop-color="rgb(93.545532%, 49.650574%, 32.472229%)" offset="0.710938"/><stop stop-opacity="1" stop-color="rgb(93.560791%, 49.874878%, 32.557678%)" offset="0.71875"/><stop stop-opacity="1" stop-color="rgb(93.57605%, 50.099182%, 32.643127%)" offset="0.726562"/><stop stop-opacity="1" stop-color="rgb(93.591309%, 50.32196%, 32.730103%)" offset="0.734375"/><stop stop-opacity="1" stop-color="rgb(93.606567%, 50.546265%, 32.815552%)" offset="0.742188"/><stop stop-opacity="1" stop-color="rgb(93.621826%, 50.769043%, 32.901001%)" offset="0.75"/><stop stop-opacity="1" stop-color="rgb(93.637085%, 50.993347%, 32.98645%)" offset="0.757812"/><stop stop-opacity="1" stop-color="rgb(93.652344%, 51.216125%, 33.073425%)" offset="0.765625"/><stop stop-opacity="1" stop-color="rgb(93.667603%, 51.44043%, 33.158875%)" offset="0.773438"/><stop stop-opacity="1" stop-color="rgb(93.682861%, 51.664734%, 33.244324%)" offset="0.78125"/><stop stop-opacity="1" stop-color="rgb(93.69812%, 51.887512%, 33.329773%)" offset="0.789062"/><stop stop-opacity="1" stop-color="rgb(93.713379%, 52.111816%, 33.415222%)" offset="0.796875"/><stop stop-opacity="1" stop-color="rgb(93.728638%, 52.334595%, 33.502197%)" offset="0.804688"/><stop stop-opacity="1" stop-color="rgb(93.743896%, 52.558899%, 33.587646%)" offset="0.8125"/><stop stop-opacity="1" stop-color="rgb(93.759155%, 52.783203%, 33.673096%)" offset="0.820312"/><stop stop-opacity="1" stop-color="rgb(93.774414%, 53.005981%, 33.758545%)" offset="0.828125"/><stop stop-opacity="1" stop-color="rgb(93.789673%, 53.230286%, 33.84552%)" offset="0.835938"/><stop stop-opacity="1" stop-color="rgb(93.804932%, 53.453064%, 33.930969%)" offset="0.84375"/><stop stop-opacity="1" stop-color="rgb(93.82019%, 53.677368%, 34.016418%)" offset="0.851562"/><stop stop-opacity="1" stop-color="rgb(93.835449%, 53.900146%, 34.101868%)" offset="0.859375"/><stop stop-opacity="1" stop-color="rgb(93.850708%, 54.124451%, 34.187317%)" offset="0.867188"/><stop stop-opacity="1" stop-color="rgb(93.865967%, 54.348755%, 34.274292%)" offset="0.875"/><stop stop-opacity="1" stop-color="rgb(93.881226%, 54.571533%, 34.359741%)" offset="0.882812"/><stop stop-opacity="1" stop-color="rgb(93.896484%, 54.795837%, 34.44519%)" offset="0.890625"/><stop stop-opacity="1" stop-color="rgb(93.911743%, 55.018616%, 34.53064%)" offset="0.898438"/><stop stop-opacity="1" stop-color="rgb(93.928528%, 55.24292%, 34.616089%)" offset="0.90625"/><stop stop-opacity="1" stop-color="rgb(93.943787%, 55.467224%, 34.703064%)" offset="0.914062"/><stop stop-opacity="1" stop-color="rgb(93.959045%, 55.690002%, 34.788513%)" offset="0.921875"/><stop stop-opacity="1" stop-color="rgb(93.974304%, 55.914307%, 34.873962%)" offset="0.929688"/><stop stop-opacity="1" stop-color="rgb(93.989563%, 56.137085%, 34.959412%)" offset="0.9375"/><stop stop-opacity="1" stop-color="rgb(94.004822%, 56.361389%, 35.046387%)" offset="0.945312"/><stop stop-opacity="1" stop-color="rgb(94.020081%, 56.584167%, 35.131836%)" offset="0.953125"/><stop stop-opacity="1" stop-color="rgb(94.035339%, 56.808472%, 35.217285%)" offset="0.960938"/><stop stop-opacity="1" stop-color="rgb(94.050598%, 57.032776%, 35.302734%)" offset="0.96875"/><stop stop-opacity="1" stop-color="rgb(94.065857%, 57.255554%, 35.388184%)" offset="0.976562"/><stop stop-opacity="1" stop-color="rgb(94.081116%, 57.479858%, 35.475159%)" offset="0.984375"/><stop stop-opacity="1" stop-color="rgb(94.096375%, 57.702637%, 35.560608%)" offset="0.992188"/><stop stop-opacity="1" stop-color="rgb(94.111633%, 57.926941%, 35.646057%)" offset="1"/></linearGradient><clipPath id="bb877b5bb2"><path d="M 707 402 L 749 402 L 749 438.925781 L 707 438.925781 Z M 707 402 " clip-rule="nonzero"/></clipPath><clipPath id="05c2e386c9"><path d="M 450 404 L 492 404 L 492 438.925781 L 450 438.925781 Z M 450 404 " clip-rule="nonzero"/></clipPath><clipPath id="cf5b5dbb96"><path d="M 534 170.425781 L 662 170.425781 L 662 214 L 534 214 Z M 534 170.425781 " clip-rule="nonzero"/></clipPath><clipPath id="f63d101364"><path d="M 252.652344 462 L 487.402344 462 L 487.402344 478 L 252.652344 478 Z M 252.652344 462 " clip-rule="nonzero"/></clipPath><clipPath id="1b7b064bf6"><rect x="0" width="192" y="0" height="72"/></clipPath><clipPath id="0cafede27a"><path d="M 712.660156 454.265625 L 947.410156 454.265625 L 947.410156 486.515625 L 712.660156 486.515625 Z M 712.660156 454.265625 " clip-rule="nonzero"/></clipPath><clipPath id="14a7502e6c"><path d="M 0.660156 8 L 235.339844 8 L 235.339844 24 L 0.660156 24 Z M 0.660156 8 " clip-rule="nonzero"/></clipPath><clipPath id="0ed6fc9b03"><rect x="0" width="236" y="0" height="33"/></clipPath></defs><rect x="-120" width="1440" fill="#ffffff" y="-67.2" height="806.399996" fill-opacity="1"/><rect x="-120" fill="url(#3b1d51379d)" width="1440" y="-67.2" height="806.399996"/><path fill="#000000" d="M 735.050781 262.476562 C 732.261719 263.257812 733.558594 273.230469 733.625 275.367188 C 733.691406 276.664062 732.328125 277.179688 731.226562 277.441406 C 732.652344 280.355469 734.078125 283.332031 735.441406 286.375 C 735.570312 286.699219 735.765625 287.023438 735.960938 287.347656 C 736.347656 285.277344 738.617188 284.824219 738.617188 284.824219 L 743.351562 284.757812 C 743.351562 284.757812 759.429688 286.894531 761.308594 280.355469 C 767.597656 258.65625 737.773438 261.765625 735.050781 262.476562 Z M 735.050781 262.476562 " fill-opacity="1" fill-rule="nonzero"/><path fill="#000000" d="M 456.773438 284.757812 L 461.308594 284.824219 C 463.058594 281 464.875 277.308594 466.625 273.746094 C 466.886719 270.183594 467.46875 263.125 465.136719 262.476562 C 462.347656 261.765625 432.585938 258.65625 438.875 280.355469 C 440.757812 286.894531 456.773438 284.757812 456.773438 284.757812 Z M 456.773438 284.757812 " fill-opacity="1" fill-rule="nonzero"/><g clip-path="url(#bb877b5bb2)"><path fill="#000000" d="M 748.601562 435.597656 L 748.601562 402.242188 C 746.527344 403.992188 744 405.351562 741.015625 406.519531 L 739.980469 406.972656 L 707.042969 407.554688 L 707.042969 435.597656 C 707.042969 437.347656 708.46875 438.773438 710.152344 438.773438 L 745.425781 438.773438 C 747.175781 438.773438 748.601562 437.347656 748.601562 435.597656 Z M 748.601562 435.597656 " fill-opacity="1" fill-rule="nonzero"/></g><g clip-path="url(#05c2e386c9)"><path fill="#000000" d="M 491.589844 435.597656 L 491.589844 407.617188 L 456.058594 406.972656 L 455.019531 406.519531 C 453.207031 405.804688 451.519531 405.027344 450.027344 404.058594 L 450.027344 435.597656 C 450.027344 437.347656 451.457031 438.773438 453.140625 438.773438 L 488.414062 438.773438 C 490.164062 438.773438 491.589844 437.347656 491.589844 435.597656 Z M 491.589844 435.597656 " fill-opacity="1" fill-rule="nonzero"/></g><g clip-path="url(#cf5b5dbb96)"><path fill="#000000" d="M 656.808594 195.464844 C 656.042969 192.722656 654.410156 190.292969 652.152344 188.59375 C 651.003906 187.726562 649.71875 187.03125 648.363281 186.578125 L 646.175781 185.851562 C 641.308594 184.253906 637.417969 180.539062 635.578125 175.785156 L 635.195312 174.742188 C 634.570312 173.214844 633.421875 171.933594 631.964844 171.238281 C 631.058594 170.785156 630.085938 170.578125 629.113281 170.578125 L 566.917969 170.578125 C 565.945312 170.578125 564.972656 170.785156 564.070312 171.238281 C 562.609375 171.933594 561.464844 173.21875 560.839844 174.742188 L 560.457031 175.785156 C 558.613281 180.539062 554.722656 184.253906 549.859375 185.851562 L 547.667969 186.578125 C 546.3125 187.03125 545.027344 187.726562 543.882812 188.59375 C 541.625 190.292969 539.988281 192.722656 539.226562 195.464844 L 534.289062 213.167969 C 551.785156 212.261719 577.011719 211.910156 598.015625 211.910156 C 619.027344 211.910156 644.253906 212.261719 661.742188 213.167969 Z M 573.457031 206.699219 L 569.5625 206.699219 L 569.5625 187.210938 L 562.566406 187.210938 L 562.566406 183.652344 L 580.457031 183.652344 L 580.457031 187.210938 L 573.457031 187.210938 Z M 599.996094 206.699219 L 597.6875 201.457031 L 586.132812 201.457031 L 583.824219 206.699219 L 579.667969 206.699219 L 589.832031 183.652344 L 593.992188 183.652344 L 604.15625 206.699219 Z M 621.019531 206.699219 L 615.34375 198.027344 L 615.179688 198.027344 L 609.503906 206.699219 L 604.652344 206.699219 L 612.574219 194.863281 L 605.210938 183.652344 L 610.03125 183.652344 L 615.179688 191.433594 L 615.34375 191.433594 L 620.496094 183.652344 L 625.3125 183.652344 L 617.953125 194.863281 L 625.875 206.699219 Z M 633.46875 206.699219 L 629.574219 206.699219 L 629.574219 183.652344 L 633.46875 183.652344 Z M 633.46875 206.699219 " fill-opacity="1" fill-rule="nonzero"/></g><path fill="#000000" d="M 587.71875 197.859375 L 596.101562 197.859375 L 591.910156 188.367188 Z M 587.71875 197.859375 " fill-opacity="1" fill-rule="nonzero"/><path fill="#000000" d="M 729.539062 289.03125 C 718.90625 265.652344 706.457031 244.992188 690.898438 228.800781 C 686.425781 224.136719 680.394531 221.285156 673.976562 220.574219 C 647.585938 217.660156 548.453125 217.660156 522.0625 220.574219 C 515.644531 221.285156 509.613281 224.136719 505.140625 228.800781 C 489.578125 244.992188 477.128906 265.652344 466.496094 289.03125 C 465.332031 291.6875 463.644531 294.082031 461.699219 296.15625 C 446.980469 312.089844 442.117188 330.351562 445.492188 350.558594 L 446.65625 387.023438 C 446.65625 394.40625 451.195312 398.097656 457.355469 400.496094 L 502.417969 401.335938 C 516.941406 401.53125 519.210938 394.148438 533.472656 394.148438 L 662.5625 394.148438 C 676.761719 394.148438 679.097656 401.53125 693.621094 401.335938 L 738.679688 400.496094 C 744.839844 398.097656 749.378906 394.40625 749.378906 387.023438 L 750.546875 350.558594 C 753.917969 330.351562 749.054688 312.089844 734.335938 296.15625 C 732.394531 294.082031 730.707031 291.6875 729.539062 289.03125 Z M 489.773438 270.703125 L 514.734375 233.460938 C 515.511719 232.363281 516.808594 231.585938 518.238281 231.390625 C 572.441406 225.496094 624.375 225.949219 681.238281 231.457031 C 682.664062 231.585938 683.960938 232.363281 684.738281 233.460938 L 709.699219 270.703125 C 711.710938 273.683594 709.503906 277.632812 705.746094 277.632812 L 493.730469 277.632812 C 490.03125 277.632812 487.765625 273.683594 489.773438 270.703125 Z M 467.746094 315.378906 L 461.667969 339.882812 C 461.667969 339.878906 452.054688 321.890625 467.746094 315.378906 Z M 484.957031 377.605469 C 484.957031 380.726562 482.421875 383.257812 479.296875 383.257812 L 470.328125 383.257812 C 467.203125 383.257812 464.667969 380.726562 464.667969 377.605469 L 464.667969 370.484375 C 464.667969 367.363281 467.203125 364.828125 470.328125 364.828125 L 479.296875 364.828125 C 482.421875 364.828125 484.957031 367.363281 484.957031 370.484375 Z M 514.496094 348.460938 C 513.796875 351.644531 510.386719 353.449219 507.238281 352.597656 C 494.339844 349.109375 481.183594 345.609375 473.480469 342.28125 C 470.574219 341.023438 469.035156 337.839844 469.792969 334.769531 L 473.722656 318.890625 C 476.816406 310.34375 503.929688 330.769531 508.074219 333.957031 C 508.433594 334.234375 508.753906 334.53125 509.050781 334.878906 C 512.304688 338.71875 514.125 343.214844 514.519531 348.363281 C 514.511719 348.398438 514.503906 348.429688 514.496094 348.460938 Z M 641.101562 380.507812 C 641.101562 382.027344 639.871094 383.257812 638.347656 383.257812 L 557.683594 383.257812 C 556.164062 383.257812 554.929688 382.027344 554.929688 380.507812 L 554.929688 367.578125 C 554.929688 366.0625 556.164062 364.828125 557.683594 364.828125 L 638.347656 364.828125 C 639.871094 364.828125 641.101562 366.0625 641.101562 367.578125 Z M 665.84375 326.070312 L 655.179688 349.242188 C 653.785156 352.269531 650.757812 354.207031 647.421875 354.207031 L 548.609375 354.207031 C 545.277344 354.207031 542.246094 352.269531 540.855469 349.242188 L 530.1875 326.070312 C 527.589844 320.421875 531.71875 313.980469 537.945312 313.980469 L 658.089844 313.980469 C 664.3125 313.980469 668.445312 320.421875 665.84375 326.070312 Z M 688.796875 352.597656 C 685.644531 353.449219 682.238281 351.644531 681.535156 348.460938 C 681.527344 348.429688 681.523438 348.394531 681.515625 348.363281 C 681.910156 343.214844 683.730469 338.71875 686.984375 334.878906 C 687.277344 334.53125 687.601562 334.234375 687.960938 333.957031 C 692.105469 330.769531 719.21875 310.34375 722.308594 318.890625 L 726.238281 334.769531 C 727 337.839844 725.460938 341.023438 722.554688 342.28125 C 714.851562 345.609375 701.695312 349.109375 688.796875 352.597656 Z M 731.367188 377.605469 C 731.367188 380.726562 728.832031 383.257812 725.703125 383.257812 L 716.738281 383.257812 C 713.609375 383.257812 711.074219 380.726562 711.074219 377.605469 L 711.074219 370.484375 C 711.074219 367.363281 713.609375 364.828125 716.738281 364.828125 L 725.703125 364.828125 C 728.832031 364.828125 731.367188 367.363281 731.367188 370.484375 Z M 734.363281 339.878906 L 728.289062 315.378906 C 743.976562 321.890625 734.363281 339.878906 734.363281 339.878906 Z M 734.363281 339.878906 " fill-opacity="1" fill-rule="nonzero"/><g clip-path="url(#f63d101364)"><path fill="#231f20" d="M 252.824219 463.191406 C 252.917969 463.089844 253.046875 463.023438 253.183594 463.003906 C 253.324219 462.984375 253.464844 463.011719 253.585938 463.085938 C 275.21875 475.730469 319.050781 473.664062 343.839844 471.910156 C 376.417969 469.605469 463.289062 454.3125 487.238281 476.253906 C 487.304688 476.316406 487.347656 476.394531 487.367188 476.480469 C 487.386719 476.566406 487.378906 476.65625 487.347656 476.738281 C 487.324219 476.808594 487.277344 476.871094 487.222656 476.921875 C 487.167969 476.972656 487.105469 477.007812 487.03125 477.03125 C 486.960938 477.050781 486.886719 477.054688 486.808594 477.042969 C 486.738281 477.027344 486.667969 476.996094 486.605469 476.953125 C 468.828125 464.105469 408.625 471.703125 385 472.144531 C 351.597656 474.59375 317.667969 478.550781 284.285156 473.78125 C 273.667969 472.074219 262.039062 470.15625 252.921875 464.121094 C 252.847656 464.070312 252.785156 464.003906 252.738281 463.929688 C 252.695312 463.851562 252.664062 463.765625 252.65625 463.679688 C 252.644531 463.589844 252.65625 463.5 252.683594 463.414062 C 252.714844 463.332031 252.761719 463.253906 252.824219 463.191406 Z M 252.824219 463.191406 " fill-opacity="1" fill-rule="nonzero"/></g><path fill="#231f20" d="M 265.515625 476.96875 C 283.125 481.496094 301.417969 483.96875 319.554688 482.746094 C 319.59375 482.746094 319.628906 482.761719 319.65625 482.785156 C 319.6875 482.8125 319.703125 482.847656 319.707031 482.882812 C 319.710938 482.921875 319.703125 482.960938 319.683594 482.992188 C 319.660156 483.023438 319.628906 483.046875 319.59375 483.054688 C 301.359375 486.472656 282.523438 484.464844 265.421875 477.277344 C 265.402344 477.273438 265.382812 477.261719 265.367188 477.25 C 265.351562 477.234375 265.335938 477.21875 265.328125 477.199219 C 265.316406 477.179688 265.3125 477.160156 265.308594 477.140625 C 265.308594 477.117188 265.308594 477.097656 265.316406 477.078125 C 265.320312 477.054688 265.332031 477.039062 265.34375 477.019531 C 265.359375 477.003906 265.375 476.992188 265.394531 476.980469 C 265.414062 476.972656 265.433594 476.964844 265.453125 476.960938 C 265.476562 476.960938 265.496094 476.960938 265.515625 476.96875 Z M 265.515625 476.96875 " fill-opacity="1" fill-rule="nonzero"/><path fill="#231f20" d="M 324.09375 481.195312 C 325.8125 480.765625 327.582031 480.589844 329.347656 480.671875 C 329.503906 480.679688 329.652344 480.742188 329.761719 480.851562 C 329.871094 480.960938 329.9375 481.105469 329.949219 481.261719 C 329.957031 481.414062 329.910156 481.566406 329.8125 481.691406 C 329.71875 481.8125 329.582031 481.894531 329.429688 481.921875 C 327.710938 482.246094 325.964844 482.421875 324.214844 482.445312 C 324.058594 482.449219 323.90625 482.390625 323.789062 482.285156 C 323.671875 482.179688 323.597656 482.03125 323.582031 481.875 C 323.566406 481.71875 323.609375 481.5625 323.707031 481.4375 C 323.800781 481.308594 323.941406 481.222656 324.09375 481.195312 Z M 324.09375 481.195312 " fill-opacity="1" fill-rule="nonzero"/><g transform="matrix(1, 0, 0, 1, 504, 434)"><g clip-path="url(#1b7b064bf6)"><g fill="#000000" fill-opacity="1"><g transform="translate(0.776933, 55.408886)"><g><path d="M 12.578125 -20.703125 L 15.125 -20.703125 C 17.613281 -20.703125 19.453125 -21.113281 20.640625 -21.9375 C 21.828125 -22.769531 22.421875 -24.078125 22.421875 -25.859375 C 22.421875 -27.628906 21.8125 -28.882812 20.59375 -29.625 C 19.382812 -30.375 17.507812 -30.75 14.96875 -30.75 L 12.578125 -30.75 Z M 12.578125 -14.28125 L 12.578125 0 L 4.6875 0 L 4.6875 -37.21875 L 15.53125 -37.21875 C 20.582031 -37.21875 24.320312 -36.296875 26.75 -34.453125 C 29.175781 -32.617188 30.390625 -29.828125 30.390625 -26.078125 C 30.390625 -23.878906 29.785156 -21.925781 28.578125 -20.21875 C 27.378906 -18.519531 25.675781 -17.1875 23.46875 -16.21875 C 29.070312 -7.851562 32.722656 -2.445312 34.421875 0 L 25.65625 0 L 16.78125 -14.28125 Z M 12.578125 -14.28125 "/></g></g><g transform="translate(35.196599, 55.408886)"><g><path d="M 26.125 0 L 4.6875 0 L 4.6875 -37.21875 L 26.125 -37.21875 L 26.125 -30.75 L 12.578125 -30.75 L 12.578125 -22.578125 L 25.171875 -22.578125 L 25.171875 -16.109375 L 12.578125 -16.109375 L 12.578125 -6.515625 L 26.125 -6.515625 Z M 26.125 0 "/></g></g><g transform="translate(64.397307, 55.408886)"><g><path d="M 20.5 -31.1875 C 17.53125 -31.1875 15.226562 -30.066406 13.59375 -27.828125 C 11.96875 -25.597656 11.15625 -22.492188 11.15625 -18.515625 C 11.15625 -10.210938 14.269531 -6.0625 20.5 -6.0625 C 23.113281 -6.0625 26.273438 -6.710938 29.984375 -8.015625 L 29.984375 -1.40625 C 26.929688 -0.125 23.519531 0.515625 19.75 0.515625 C 14.34375 0.515625 10.203125 -1.125 7.328125 -4.40625 C 4.460938 -7.695312 3.03125 -12.414062 3.03125 -18.5625 C 3.03125 -22.425781 3.734375 -25.8125 5.140625 -28.71875 C 6.546875 -31.632812 8.566406 -33.867188 11.203125 -35.421875 C 13.847656 -36.972656 16.945312 -37.75 20.5 -37.75 C 24.113281 -37.75 27.742188 -36.878906 31.390625 -35.140625 L 28.84375 -28.71875 C 27.445312 -29.382812 26.046875 -29.960938 24.640625 -30.453125 C 23.234375 -30.941406 21.851562 -31.1875 20.5 -31.1875 Z M 20.5 -31.1875 "/></g></g><g transform="translate(97.620432, 55.408886)"><g><path d="M 4.6875 0 L 4.6875 -37.21875 L 12.578125 -37.21875 L 12.578125 0 Z M 4.6875 0 "/></g></g><g transform="translate(114.881182, 55.408886)"><g><path d="M 4.6875 -37.21875 L 16.265625 -37.21875 C 21.546875 -37.21875 25.378906 -36.46875 27.765625 -34.96875 C 30.148438 -33.46875 31.34375 -31.078125 31.34375 -27.796875 C 31.34375 -25.578125 30.816406 -23.753906 29.765625 -22.328125 C 28.722656 -20.898438 27.335938 -20.039062 25.609375 -19.75 L 25.609375 -19.5 C 27.972656 -18.976562 29.675781 -17.992188 30.71875 -16.546875 C 31.757812 -15.109375 32.28125 -13.191406 32.28125 -10.796875 C 32.28125 -7.398438 31.050781 -4.75 28.59375 -2.84375 C 26.144531 -0.945312 22.816406 0 18.609375 0 L 4.6875 0 Z M 12.578125 -22.484375 L 17.15625 -22.484375 C 19.300781 -22.484375 20.851562 -22.8125 21.8125 -23.46875 C 22.769531 -24.132812 23.25 -25.226562 23.25 -26.75 C 23.25 -28.175781 22.722656 -29.195312 21.671875 -29.8125 C 20.628906 -30.4375 18.984375 -30.75 16.734375 -30.75 L 12.578125 -30.75 Z M 12.578125 -16.21875 L 12.578125 -6.515625 L 17.71875 -6.515625 C 19.894531 -6.515625 21.5 -6.929688 22.53125 -7.765625 C 23.5625 -8.597656 24.078125 -9.867188 24.078125 -11.578125 C 24.078125 -14.671875 21.875 -16.21875 17.46875 -16.21875 Z M 12.578125 -16.21875 "/></g></g><g transform="translate(149.911848, 55.408886)"><g><path d="M 38.46875 -18.65625 C 38.46875 -12.5 36.9375 -7.765625 33.875 -4.453125 C 30.820312 -1.140625 26.445312 0.515625 20.75 0.515625 C 15.039062 0.515625 10.660156 -1.140625 7.609375 -4.453125 C 4.554688 -7.765625 3.03125 -12.519531 3.03125 -18.71875 C 3.03125 -24.90625 4.5625 -29.632812 7.625 -32.90625 C 10.6875 -36.175781 15.078125 -37.8125 20.796875 -37.8125 C 26.515625 -37.8125 30.890625 -36.160156 33.921875 -32.859375 C 36.953125 -29.566406 38.46875 -24.832031 38.46875 -18.65625 Z M 11.296875 -18.65625 C 11.296875 -14.5 12.085938 -11.367188 13.671875 -9.265625 C 15.253906 -7.160156 17.613281 -6.109375 20.75 -6.109375 C 27.039062 -6.109375 30.1875 -10.289062 30.1875 -18.65625 C 30.1875 -27.039062 27.054688 -31.234375 20.796875 -31.234375 C 17.660156 -31.234375 15.289062 -30.175781 13.6875 -28.0625 C 12.09375 -25.957031 11.296875 -22.820312 11.296875 -18.65625 Z M 11.296875 -18.65625 "/></g></g></g></g></g><g clip-path="url(#0cafede27a)"><g transform="matrix(1, 0, 0, 1, 712, 454)"><g clip-path="url(#0ed6fc9b03)"><g clip-path="url(#14a7502e6c)"><path fill="#231f20" d="M 235.167969 9.191406 C 235.070312 9.089844 234.945312 9.023438 234.804688 9.003906 C 234.667969 8.984375 234.527344 9.011719 234.40625 9.085938 C 212.773438 21.730469 168.941406 19.664062 144.148438 17.910156 C 111.570312 15.605469 24.703125 0.3125 0.753906 22.253906 C 0.6875 22.316406 0.644531 22.394531 0.625 22.480469 C 0.605469 22.566406 0.609375 22.65625 0.640625 22.738281 C 0.667969 22.808594 0.710938 22.871094 0.765625 22.921875 C 0.820312 22.972656 0.886719 23.007812 0.960938 23.03125 C 1.03125 23.050781 1.105469 23.054688 1.179688 23.042969 C 1.253906 23.027344 1.320312 22.996094 1.382812 22.953125 C 19.164062 10.105469 79.367188 17.703125 102.988281 18.144531 C 136.394531 20.59375 170.320312 24.550781 203.703125 19.78125 C 214.324219 18.074219 225.949219 16.160156 235.066406 10.121094 C 235.140625 10.070312 235.203125 10.003906 235.25 9.929688 C 235.296875 9.851562 235.324219 9.765625 235.335938 9.679688 C 235.34375 9.589844 235.335938 9.5 235.304688 9.414062 C 235.277344 9.332031 235.230469 9.253906 235.167969 9.191406 Z M 235.167969 9.191406 " fill-opacity="1" fill-rule="nonzero"/></g><path fill="#231f20" d="M 222.472656 22.96875 C 204.863281 27.496094 186.574219 29.96875 168.433594 28.746094 C 168.398438 28.746094 168.359375 28.761719 168.332031 28.785156 C 168.304688 28.8125 168.285156 28.847656 168.28125 28.882812 C 168.277344 28.921875 168.285156 28.960938 168.308594 28.992188 C 168.328125 29.023438 168.363281 29.046875 168.398438 29.054688 C 186.632812 32.472656 205.464844 30.464844 222.566406 23.277344 C 222.585938 23.273438 222.605469 23.261719 222.621094 23.25 C 222.640625 23.234375 222.652344 23.21875 222.664062 23.199219 C 222.671875 23.179688 222.679688 23.160156 222.679688 23.140625 C 222.683594 23.117188 222.679688 23.097656 222.675781 23.078125 C 222.667969 23.054688 222.660156 23.039062 222.644531 23.019531 C 222.632812 23.003906 222.613281 22.992188 222.597656 22.980469 C 222.578125 22.972656 222.558594 22.964844 222.535156 22.960938 C 222.515625 22.960938 222.492188 22.960938 222.472656 22.96875 Z M 222.472656 22.96875 " fill-opacity="1" fill-rule="nonzero"/><path fill="#231f20" d="M 163.894531 27.195312 C 162.179688 26.765625 160.410156 26.589844 158.640625 26.671875 C 158.484375 26.679688 158.339844 26.742188 158.230469 26.851562 C 158.117188 26.960938 158.050781 27.105469 158.042969 27.261719 C 158.03125 27.414062 158.082031 27.566406 158.175781 27.691406 C 158.273438 27.8125 158.410156 27.894531 158.5625 27.921875 C 160.28125 28.246094 162.023438 28.421875 163.773438 28.445312 C 163.933594 28.449219 164.085938 28.390625 164.203125 28.285156 C 164.320312 28.179688 164.394531 28.035156 164.40625 27.875 C 164.421875 27.71875 164.378906 27.5625 164.285156 27.4375 C 164.1875 27.308594 164.050781 27.222656 163.894531 27.195312 Z M 163.894531 27.195312 " fill-opacity="1" fill-rule="nonzero"/></g></g></g></svg>